<svg width="42" height="43" viewBox="0 0 42 43" fill="none" xmlns="http://www.w3.org/2000/svg">
<path d="M37.3333 0.569092H4.66667C2.1 0.569092 0 2.66143 0 5.21873V37.7662C0 40.3235 2.1 42.4158 4.66667 42.4158H37.3333C39.9 42.4158 42 40.3235 42 37.7662V5.21873C42 2.66143 39.9 0.569092 37.3333 0.569092ZM37.3333 27.7662C37.3333 33.289 32.8562 37.7662 27.3333 37.7662H14.6667C9.14381 37.7662 4.66667 33.289 4.66667 27.7662V15.2187C4.66667 9.69589 9.14382 5.21873 14.6667 5.21873H27.3333C32.8562 5.21873 37.3333 9.69588 37.3333 15.2187V27.7662ZM33.3256 16.163C34.2374 15.2545 34.2401 13.7789 33.3315 12.8672C32.423 11.9556 30.9477 11.953 30.036 12.8614L19.3195 23.5388C17.6547 25.1975 14.9627 25.2001 13.2947 23.5446L11.9295 22.1897C11.0216 21.2887 9.55722 21.2875 8.64789 22.1871C7.72719 23.098 7.72549 24.5847 8.64411 25.4977L11.6745 28.5095C14.2383 31.0575 18.3791 31.0549 20.9397 28.5037L33.3256 16.163Z" fill="white"/>
</svg>
