<svg width="43" height="44" viewBox="0 0 43 44" fill="none" xmlns="http://www.w3.org/2000/svg">
<path d="M21.375 14.7673H30.875C32.1812 14.7673 33.25 13.7025 33.25 12.401C33.25 11.0995 32.1812 10.0347 30.875 10.0347H21.375C20.0688 10.0347 19 11.0995 19 12.401C19 13.7025 20.0688 14.7673 21.375 14.7673ZM21.375 24.2327H30.875C32.1812 24.2327 33.25 23.1678 33.25 21.8663C33.25 20.5648 32.1812 19.5 30.875 19.5H21.375C20.0688 19.5 19 20.5648 19 21.8663C19 23.1678 20.0688 24.2327 21.375 24.2327ZM21.375 33.698H30.875C32.1812 33.698 33.25 32.6331 33.25 31.3317C33.25 30.0302 32.1812 28.9653 30.875 28.9653H21.375C20.0688 28.9653 19 30.0302 19 31.3317C19 32.6331 20.0688 33.698 21.375 33.698ZM9.5 12.401C9.5 11.0941 10.5681 10.0347 11.875 10.0347C13.1819 10.0347 14.25 11.0941 14.25 12.401C14.25 13.7079 13.1819 14.7673 11.875 14.7673C10.5681 14.7673 9.5 13.7079 9.5 12.401ZM9.5 21.8663C9.5 20.5594 10.5681 19.5 11.875 19.5C13.1819 19.5 14.25 20.5594 14.25 21.8663C14.25 23.1732 13.1819 24.2327 11.875 24.2327C10.5681 24.2327 9.5 23.1732 9.5 21.8663ZM9.5 31.3317C9.5 30.0248 10.5681 28.9653 11.875 28.9653C13.1819 28.9653 14.25 30.0248 14.25 31.3317C14.25 32.6385 13.1819 33.698 11.875 33.698C10.5681 33.698 9.5 32.6385 9.5 31.3317ZM40.375 0.569336H2.375C1.06875 0.569336 0 1.63419 0 2.93567V40.797C0 42.0985 1.06875 43.1633 2.375 43.1633H40.375C41.6813 43.1633 42.75 42.0985 42.75 40.797V2.93567C42.75 1.63419 41.6813 0.569336 40.375 0.569336ZM38 28.4307C38 33.9535 33.5228 38.4306 28 38.4306H14.75C9.22715 38.4306 4.75 33.9535 4.75 28.4306V15.302C4.75 9.77915 9.22715 5.302 14.75 5.302H28C33.5228 5.302 38 9.77915 38 15.302V28.4307Z" fill="white"/>
</svg>
