<svg width="41" height="42" viewBox="0 0 41 42" fill="none" xmlns="http://www.w3.org/2000/svg">
<path d="M20.5002 0.648438C9.23016 0.648438 0.0834961 9.76172 0.0834961 20.9906C0.0834961 32.2195 9.23016 41.3327 20.5002 41.3327C31.7702 41.3327 40.9168 32.2195 40.9168 20.9906C40.9168 9.76172 31.7702 0.648438 20.5002 0.648438ZM20.5002 37.2643C11.4964 37.2643 4.16683 29.9615 4.16683 20.9906C4.16683 12.0197 11.4964 4.71687 20.5002 4.71687C29.5039 4.71687 36.8335 12.0197 36.8335 20.9906C36.8335 29.9615 29.5039 37.2643 20.5002 37.2643ZM22.3172 19.1598C18.6831 17.9596 16.9272 17.207 16.9272 15.2948C16.9272 13.2199 19.1935 12.4672 20.6227 12.4672C21.9847 12.4672 22.9073 12.9895 23.5144 13.5962C24.2333 14.3145 25.311 14.8512 26.2471 14.4557C27.081 14.1034 27.5062 13.1549 27.0144 12.3948C26.3639 11.3894 25.244 10.1931 23.4236 9.57816C22.7873 9.36322 22.2968 8.8034 22.2968 8.13181C22.2968 7.36925 21.6787 6.75108 20.9161 6.75108H20.1414C19.3586 6.75108 18.7239 7.38573 18.7239 8.1686C18.7239 8.83686 18.249 9.40112 17.6195 9.62537C13.4097 11.1251 13.3747 15.1284 13.3747 15.3355C13.3747 19.9531 17.9685 21.255 20.2143 22.0687C23.4402 23.2079 24.8693 24.2453 24.8693 26.1982C24.8693 28.4968 22.7256 29.4733 20.8268 29.4733C18.6964 29.4733 17.4384 28.2228 16.7297 27.0715C16.1647 26.1535 15.0493 25.5746 14.0492 25.9768C13.1908 26.322 12.7136 27.2722 13.1103 28.1082C14.2872 30.5886 16.1869 31.7269 17.6014 32.2652C18.235 32.5064 18.7035 33.0834 18.7035 33.7613C18.7035 34.5725 19.3611 35.2301 20.1723 35.2301H20.9072C21.6634 35.2301 22.2764 34.6171 22.2764 33.8609C22.2764 33.1945 22.7585 32.6357 23.3981 32.4488C25.2599 31.9048 28.4422 30.3819 28.4422 26.1575C28.4627 23.3299 27.2172 20.8482 22.3172 19.1598Z" fill="white"/>
</svg>
