<svg width="46" height="43" viewBox="0 0 46 43" fill="none" xmlns="http://www.w3.org/2000/svg">
<path d="M16.4972 5.98455C16.4972 3.13026 18.8449 0.816406 21.6992 0.816406C24.5535 0.816406 26.9013 3.13026 26.9013 5.98455C26.9013 8.83884 24.5535 11.1527 21.6992 11.1527C18.8449 11.1527 16.4972 8.83884 16.4972 5.98455ZM0.891113 36.9934C0.891113 34.1391 3.23886 31.8253 6.09314 31.8253C8.94743 31.8253 11.2952 34.1391 11.2952 36.9934C11.2952 39.8477 8.94743 42.1616 6.09314 42.1616C3.23886 42.1616 0.891113 39.8477 0.891113 36.9934ZM0.891113 21.489C0.891113 18.6347 3.23886 16.3208 6.09314 16.3208C8.94743 16.3208 11.2952 18.6347 11.2952 21.489C11.2952 24.3433 8.94743 26.6571 6.09314 26.6571C3.23886 26.6571 0.891113 24.3433 0.891113 21.489ZM0.891113 5.98455C0.891113 3.13026 3.23886 0.816406 6.09314 0.816406C8.94743 0.816406 11.2952 3.13026 11.2952 5.98455C11.2952 8.83884 8.94743 11.1527 6.09314 11.1527C3.23886 11.1527 0.891113 8.83884 0.891113 5.98455ZM25.5977 23.8694C26.432 23.0404 26.9013 21.9129 26.9013 20.7367C26.9013 18.2979 24.9242 16.3208 22.4854 16.3208H21.6653C18.8111 16.3208 16.4972 18.6347 16.4972 21.489V22.2002C16.4972 24.6617 18.4926 26.6571 20.9541 26.6571C22.1311 26.6571 23.2603 26.1916 24.0953 25.362L25.5977 23.8694ZM44.7962 19.6543L41.753 16.6309C41.654 16.5325 41.5364 16.4544 41.407 16.4011C41.2776 16.3478 41.1388 16.3204 40.9988 16.3204C40.8587 16.3204 40.7199 16.3478 40.5905 16.4011C40.4611 16.4544 40.3435 16.5325 40.2445 16.6309C38.9828 17.8844 38.9837 19.9263 40.2454 21.1798C41.4965 22.4228 43.5172 22.4237 44.7684 21.1807L44.7962 21.1531C44.8953 21.0547 44.9739 20.9378 45.0276 20.8093C45.0812 20.6807 45.1088 20.5429 45.1088 20.4037C45.1088 20.2645 45.0812 20.1267 45.0276 19.9981C44.9739 19.8695 44.8953 19.7527 44.7962 19.6543ZM20.0409 36.7029C19.4375 37.3023 19.0982 38.1177 19.0982 38.9683C19.0982 40.7319 20.5488 42.1616 22.3125 42.1616C23.1636 42.1616 23.9889 41.8249 24.5927 41.225L38.708 27.2016C39.9707 25.9471 39.9707 23.9045 38.708 22.65C37.4569 21.407 35.4371 21.407 34.186 22.65L20.0409 36.7029ZM32.1033 5.98455C32.1033 3.13026 34.451 0.816406 37.3053 0.816406C40.1596 0.816406 42.5073 3.13026 42.5073 5.98455C42.5073 8.83884 40.1596 11.1527 37.3053 11.1527C34.451 11.1527 32.1033 8.83884 32.1033 5.98455Z" fill="#FCFCFC"/>
</svg>
